<svg height="512" viewBox="0 0 512 512" width="512" xmlns="http://www.w3.org/2000/svg"><g><g><path d="m32 128h208a0 0 0 0 1 0 0v328a40 40 0 0 1 -40 40h-128a40 40 0 0 1 -40-40v-328a0 0 0 0 1 0 0z" fill="#cca400"/><path d="m56 16h160v112h-160z" fill="#d8d7da"/><path d="m88 48h24v48h-24z" fill="#787680"/><path d="m160 48h24v48h-24z" fill="#787680"/><path d="m312 384h128a40 40 0 0 1 40 40v72a0 0 0 0 1 0 0h-208a0 0 0 0 1 0 0v-72a40 40 0 0 1 40-40z" fill="#cca400"/></g><g><path d="m240 120h-16v-104a8 8 0 0 0 -8-8h-160a8 8 0 0 0 -8 8v104h-16a8 8 0 0 0 -8 8v328a48.051 48.051 0 0 0 48 48h128a48.051 48.051 0 0 0 48-48v-328a8 8 0 0 0 -8-8zm-176-96h144v96h-144zm168 432a32.042 32.042 0 0 1 -32 32h-128a32.042 32.042 0 0 1 -32-32v-320h192z"/><path d="m112 40h-24a8 8 0 0 0 -8 8v48a8 8 0 0 0 8 8h24a8 8 0 0 0 8-8v-48a8 8 0 0 0 -8-8zm-8 48h-8v-32h8z"/><path d="m184 40h-24a8 8 0 0 0 -8 8v48a8 8 0 0 0 8 8h24a8 8 0 0 0 8-8v-48a8 8 0 0 0 -8-8zm-8 48h-8v-32h8z"/><path d="m440 376h-128a48.055 48.055 0 0 0 -48 48v72a8 8 0 0 0 8 8h208a8 8 0 0 0 8-8v-72a48.055 48.055 0 0 0 -48-48zm32 112h-192v-64a32.036 32.036 0 0 1 32-32h128a32.036 32.036 0 0 1 32 32z"/></g></g></svg>